<svg id="Capa_1" enable-background="new 0 0 512 512" height="512" viewBox="0 0 512 512" width="512" xmlns="http://www.w3.org/2000/svg"><g><g><g><path d="m461.571 71.031c-56.68-56.68-148.211-57.195-205.571-1.62-57.361-55.576-148.891-55.061-205.571 1.62-57.238 57.238-57.238 150.04 0 207.278l205.571 205.571 205.571-205.572c57.238-57.237 57.239-150.039 0-207.277z" fill="#dd636e"/></g><g><path d="m461.571 71.031c-27.298-27.299-62.682-41.529-98.437-42.78 4.014 17.77 6.204 36.232 6.204 55.215 0 137.863-111.76 249.623-249.623 249.623-5.039 0-10.03-.194-14.995-.489l151.28 151.28 205.571-205.572c57.238-57.237 57.239-150.039 0-207.277z" fill="#da4a54"/></g></g><g><g><circle cx="256" cy="236.808" fill="#f6e781" r="117.179"/></g><g><path d="m325.927 142.774c14.539 19.519 23.146 43.717 23.146 69.927 0 64.716-52.463 117.179-117.179 117.179-26.21 0-50.408-8.607-69.927-23.146 21.36 28.677 55.527 47.252 94.033 47.252 64.716 0 117.179-52.463 117.179-117.179 0-38.506-18.575-72.672-47.252-94.033z" fill="#f1cb86"/></g></g><g><path d="m405.664 386.755 58.43-34.143-142.716-50.144 50.143 142.716z" fill="#b1e4f9"/></g><g><path d="m255.214 324.031c4.143 0 7.5-3.357 7.5-7.5v-11.277c19.742-3.385 31.267-19.44 33.786-34.428 3.172-18.869-6.707-35.278-25.169-41.804-3.105-1.097-5.967-2.148-8.617-3.164v-44c7.846 1.446 12.552 5.478 12.917 5.8 3.047 2.768 7.762 2.564 10.556-.467 2.809-3.045 2.617-7.79-.428-10.598-.497-.458-9.059-8.164-23.045-9.909v-9.602c0-4.143-3.357-7.5-7.5-7.5-4.142 0-7.5 3.357-7.5 7.5v10.19c-1.593.317-3.222.717-4.892 1.22-12.104 3.646-21.151 14.02-23.611 27.072-2.235 11.858 1.536 23.272 9.841 29.786 4.667 3.66 10.525 7.011 18.662 10.582v54.872c-7.769-.383-12.705-1.953-21.173-7.493-3.467-2.267-8.116-1.297-10.382 2.171-2.268 3.466-1.296 8.114 2.17 10.382 11.422 7.472 19.104 9.494 29.385 9.938v10.728c0 4.144 3.358 7.501 7.5 7.501zm-16.904-110.481c-3.882-3.044-5.551-8.871-4.358-15.206 1.112-5.899 5.163-13.066 13.197-15.486.191-.057.376-.104.565-.157v36.655c-3.864-1.968-6.936-3.87-9.404-5.806zm28.022 29.615c17.173 6.07 16.11 20.804 15.376 25.175-1.5 8.923-7.966 18.435-18.994 21.53v-48.002c1.173.426 2.376.858 3.618 1.297z"/><path d="m466.58 345.535-45.604-16.023 45.898-45.898c29.1-29.101 45.126-67.79 45.126-108.943s-16.026-79.843-45.126-108.943c-28.793-28.792-67.07-44.811-107.78-45.104-38.255-.281-74.616 13.37-103.094 38.567-28.478-25.197-64.788-38.857-103.094-38.567-40.71.293-78.987 16.312-107.779 45.104-29.101 29.1-45.127 67.789-45.127 108.943s16.026 79.843 45.127 108.942l18.107 18.108c2.929 2.93 7.678 2.929 10.606.001 2.929-2.929 2.929-7.678 0-10.606l-18.107-18.109c-26.267-26.267-40.733-61.19-40.733-98.336s14.466-72.069 40.733-98.336c53.357-53.359 140.855-54.048 195.047-1.538 2.909 2.82 7.529 2.818 10.438 0 54.193-52.509 141.69-51.818 195.048 1.538 26.268 26.266 40.734 61.189 40.734 98.336s-14.466 72.069-40.733 98.336l-50.99 50.99-46.646-16.389c14.279-20.719 22.049-45.484 22.049-70.797 0-30.537-11.152-59.92-31.402-82.735-2.75-3.099-7.492-3.381-10.588-.631-3.098 2.75-3.38 7.49-.631 10.588 17.812 20.068 27.621 45.915 27.621 72.778 0 23.646-7.711 46.743-21.797 65.615l-20.018-7.033c-2.722-.956-5.75-.268-7.79 1.772-2.039 2.04-2.729 5.068-1.772 7.79l7.012 19.957c-18.805 13.945-41.794 21.579-65.314 21.579-60.478 0-109.68-49.202-109.68-109.681 0-60.478 49.202-109.68 109.68-109.68 20.144 0 39.835 5.505 56.944 15.919 3.536 2.154 8.151 1.032 10.306-2.507 2.154-3.538 1.031-8.152-2.507-10.306-19.46-11.846-41.848-18.106-64.743-18.106-68.749 0-124.68 55.931-124.68 124.68s55.93 124.681 124.679 124.681c25.186 0 49.843-7.696 70.491-21.842l16.415 46.718-86.906 86.907-157.389-157.389c-2.929-2.928-7.678-2.928-10.606 0-2.929 2.93-2.929 7.678 0 10.607l162.692 162.692c1.464 1.464 3.384 2.196 5.303 2.196s3.839-.732 5.304-2.196l87.118-87.118 16.023 45.604c.969 2.758 3.452 4.701 6.361 4.979.24.023.479.034.717.034 2.646 0 5.12-1.4 6.474-3.716l33.149-56.731 3.051-1.782c3.577-2.09 4.782-6.683 2.692-10.259-2.089-3.578-6.684-4.782-10.259-2.692l-4.75 2.775c-1.114.65-2.041 1.578-2.692 2.691l-25.965 44.435-39.59-112.682 112.681 39.591-9.383 5.482c-3.576 2.09-4.781 6.684-2.691 10.26 2.089 3.576 6.684 4.782 10.26 2.691l23.378-13.661c2.523-1.475 3.96-4.281 3.682-7.19-.279-2.909-2.223-5.391-4.98-6.36z"/></g></g></svg>