<?xml version="1.0"?>
<svg xmlns="http://www.w3.org/2000/svg" xmlns:xlink="http://www.w3.org/1999/xlink" xmlns:svgjs="http://svgjs.com/svgjs" version="1.1" width="512" height="512" x="0" y="0" viewBox="0 0 24 24" style="enable-background:new 0 0 512 512" xml:space="preserve" class=""><g><path xmlns="http://www.w3.org/2000/svg" d="m21 1h-18c-1.654 0-3 1.346-3 3v16c0 1.654 1.346 3 3 3h18c1.654 0 3-1.346 3-3v-16c0-1.654-1.346-3-3-3zm0 20h-18c-.551 0-1-.448-1-1v-14h20v14c0 .552-.449 1-1 1z" fill="#57cbff" data-original="#000000" style="" class=""/><path xmlns="http://www.w3.org/2000/svg" d="m16.043 20h-8.086c-1.079 0-1.957-.878-1.957-1.957v-2.043c0-.552.448-1 1-1s1 .448 1 1v2.043l8.043-.043-.043-2c0-.552.448-1 1-1s1 .448 1 1v2.043c0 1.079-.878 1.957-1.957 1.957z" fill="#57cbff" data-original="#000000" style="" class=""/><path xmlns="http://www.w3.org/2000/svg" d="m12 15.5c-.552 0-1-.448-1-1v-5.5c0-.552.448-1 1-1s1 .448 1 1v5.5c0 .552-.448 1-1 1z" fill="#57cbff" data-original="#000000" style="" class=""/><path xmlns="http://www.w3.org/2000/svg" d="m14 12h-4c-.404 0-.769.244-.924.617-.155.374-.069.804.217 1.09l2 2c.391.391 1.023.391 1.414 0l2-2c.286-.286.372-.716.217-1.09-.155-.373-.52-.617-.924-.617z" fill="#57cbff" data-original="#000000" style="" class=""/></g></svg>
